# xmcd
#
# Track frame offsets: 
#        150
#        18833
#        37235
#        53878
#        74227
#        95673
#        115279
#        134137
#        151451
#        171880
#        192260
#        209455
#
# Disc length: 3086 seconds
#
# Revision: 0
# Processed by: cddbd v1.5.2PL0 Copyright (c) Steve Scherf et al.
# Submitted via: ExactAudioCopyFreeDBPlugin 1.0
#
DISCID=bc0c0c0c
DTITLE=李星儿 - DTSES童声
DYEAR=2008
DGENRE=DTSES
TTITLE0=家乡
TTITLE1=月儿弯弯照九洲
TTITLE2=浪子心声
TTITLE3=梦驼铃
TTITLE4=莫斯科郊外的晚上
TTITLE5=隐形的翅膀
TTITLE6=月牙泉
TTITLE7=外婆的澎湖湾
TTITLE8=天路
TTITLE9=我们都是好孩子
TTITLE10=彩云之南
TTITLE11=千里之外
EXTD=
EXTT0=
EXTT1=
EXTT2=
EXTT3=
EXTT4=
EXTT5=
EXTT6=
EXTT7=
EXTT8=
EXTT9=
EXTT10=
EXTT11=
PLAYORDER=
